<svg width="539" height="926" viewBox="0 0 539 926" fill="none" xmlns="http://www.w3.org/2000/svg">
<g filter="url(#filter0_d_332_12)">
<path d="M-201 3.65806H1231V925.172H-201V3.65806Z" fill="white" shape-rendering="crispEdges"/>
<path d="M1094.5 267.872C1094.5 566.035 804.496 807.744 446.752 807.744C89.0087 807.744 -201 566.035 -201 267.872C-201 -30.2911 89.0087 -272 446.752 -272C804.496 -272 1094.5 -30.2911 1094.5 267.872Z" fill="url(#paint0_linear_332_12)" shape-rendering="crispEdges"/>
<path d="M1231 390.109C1231 686.073 933.486 926 566.485 926C199.483 926 -98.0301 686.073 -98.0301 390.109C-98.0301 94.1443 199.483 -145.782 566.485 -145.782C933.486 -145.782 1231 94.1443 1231 390.109Z" fill="url(#paint1_linear_332_12)" fill-opacity="0.3" shape-rendering="crispEdges"/>
</g>
<defs>
<filter id="filter0_d_332_12" x="-205" y="-272" width="1440" height="1206" filterUnits="userSpaceOnUse" color-interpolation-filters="sRGB">
<feFlood flood-opacity="0" result="BackgroundImageFix"/>
<feColorMatrix in="SourceAlpha" type="matrix" values="0 0 0 0 0 0 0 0 0 0 0 0 0 0 0 0 0 0 127 0" result="hardAlpha"/>
<feOffset dy="4"/>
<feGaussianBlur stdDeviation="2"/>
<feComposite in2="hardAlpha" operator="out"/>
<feColorMatrix type="matrix" values="0 0 0 0 0 0 0 0 0 0 0 0 0 0 0 0 0 0 0.25 0"/>
<feBlend mode="normal" in2="BackgroundImageFix" result="effect1_dropShadow_332_12"/>
<feBlend mode="normal" in="SourceGraphic" in2="effect1_dropShadow_332_12" result="shape"/>
</filter>
<linearGradient id="paint0_linear_332_12" x1="421.699" y1="114.47" x2="411.138" y2="761.927" gradientUnits="userSpaceOnUse">
<stop stop-color="#FFD42A"/>
<stop offset="0.604167" stop-color="#69B639"/>
<stop offset="1" stop-color="#07A343"/>
</linearGradient>
<linearGradient id="paint1_linear_332_12" x1="350.099" y1="110.006" x2="339.538" y2="757.463" gradientUnits="userSpaceOnUse">
<stop stop-color="#FFD42A"/>
<stop offset="0.604167" stop-color="#69B639"/>
<stop offset="1" stop-color="#07A343"/>
</linearGradient>
</defs>
</svg>
