<?xml version="1.0" encoding="utf-8"?>
<!-- Generator: Adobe Illustrator 26.0.1, SVG Export Plug-In . SVG Version: 6.00 Build 0)  -->
<svg version="1.1" xmlns="http://www.w3.org/2000/svg" xmlns:xlink="http://www.w3.org/1999/xlink" x="0px" y="0px"
	 viewBox="0 0 512 512" style="enable-background:new 0 0 512 512;" xml:space="preserve">
<style type="text/css">
	.st0{display:none;}
	.st1{display:inline;}
	.st2{fill:none;stroke:#1D1D1B;stroke-width:10;stroke-miterlimit:10;}
</style>
<g id="Calque_2" class="st0">
	<rect class="st1" width="512" height="512"/>
</g>
<g id="Calque_1">
	<g transform="translate(0.000000,512.000000) scale(0.100000,-0.100000)">
		<path d="M2380.9,3848.1c-103.2-19.5-182.8-62.1-252.2-134.8c-63.4-66.2-102.4-143.4-119.4-234.8c-9.3-49.6-6.5-145,5.3-189.7
			c25.6-94.2,76-175.9,145-234.8c17.5-14.6,33.3-28,36.1-29.6c3.2-2.4,2.8-4.1-1.6-5.7c-14.2-5.7-65-33.7-91.8-50.8
			c-166.9-107.2-282.3-303.4-292.8-497.5l-2.4-45.9h67h67l2.4,41.8c2.8,50,17.1,107.2,39,158.8c64.6,151.5,190.9,259.1,352.9,301.8
			c53.6,13.8,150.7,17.5,208,7.7c199.4-34.9,357-176.3,412.7-370c9.3-31.7,17.9-83.3,17.9-106.4c0-35.3-3.7-33.7,70.3-33.7h65
			l-2.4,45.9c-6.9,135.7-62.5,270.9-156.8,379.3c-52,59.7-117.4,111.3-192.1,151.5l-39.4,20.7l30.1,24.4
			c69.9,55.2,127.1,145.4,153.1,240c8.1,29.6,9.3,43.1,9.3,110.9c0,71.5-0.8,80-11.4,117.8c-12.6,45.9-38.6,102.8-64.2,140.9
			c-51.6,76.4-140.9,144.2-231.1,175.1C2540.1,3853,2444.3,3860.3,2380.9,3848.1z M2527.1,3714c112.1-25.6,203.5-108,237.2-214
			c57.3-179.9-44.3-365.5-227-413.9c-45.1-11.8-113.3-11.8-158,0c-145,38.6-242.1,162.5-242.1,310.3c0,52.8,8.9,94.2,30.1,138.9
			c41.8,88.5,128.3,158.8,219.7,177.9C2424.4,3721.4,2493.8,3721.8,2527.1,3714z"/>
	</g>
	<circle class="st2" cx="245.8" cy="208.3" r="115.5"/>
</g>
</svg>
