<?xml version="1.0" encoding="UTF-8" standalone="no"?>
<svg
   version="1.0"
   width="1885.3334"
   height="905.66669"
   viewBox="0 0 1414 679.25"
   preserveAspectRatio="xMidYMid meet"
   id="svg28"
   sodipodi:docname="logofinal.svg"
   inkscape:version="1.1 (c68e22c387, 2021-05-23)"
   inkscape:export-filename="C:\Users\servi\OneDrive\Bureau\logowebsitewhite.png"
   inkscape:export-xdpi="91.073021"
   inkscape:export-ydpi="91.073021"
   xmlns:inkscape="http://www.inkscape.org/namespaces/inkscape"
   xmlns:sodipodi="http://sodipodi.sourceforge.net/DTD/sodipodi-0.dtd"
   xmlns:xlink="http://www.w3.org/1999/xlink"
   xmlns="http://www.w3.org/2000/svg"
   xmlns:svg="http://www.w3.org/2000/svg">
  <defs
     id="defs32">
    <linearGradient
       inkscape:collect="always"
       id="linearGradient3717">
      <stop
         style="stop-color:#07a343;stop-opacity:1"
         offset="0"
         id="stop3713" />
      <stop
         style="stop-color:#ffd42a;stop-opacity:1"
         offset="1"
         id="stop3715" />
    </linearGradient>
    <linearGradient
       inkscape:collect="always"
       id="linearGradient17518">
      <stop
         style="stop-color:#ffd42a;stop-opacity:1;"
         offset="0"
         id="stop17514" />
      <stop
         style="stop-color:#07a343;stop-opacity:1"
         offset="1"
         id="stop17516" />
    </linearGradient>
    <clipPath
       id="clip1">
      <path
         d="M 0.195312,224.53125 H 146.64062 V 305.75 H 0.195312 Z m 0,0"
         id="path11544" />
    </clipPath>
    <linearGradient
       inkscape:collect="always"
       xlink:href="#linearGradient17518"
       id="linearGradient17732"
       x1="531.53589"
       y1="201.28137"
       x2="375.61816"
       y2="237.33362"
       gradientUnits="userSpaceOnUse"
       gradientTransform="matrix(0.83663333,0,0,0.78506265,128.05418,133.9176)" />
    <linearGradient
       inkscape:collect="always"
       xlink:href="#linearGradient17518"
       id="linearGradient17752"
       gradientUnits="userSpaceOnUse"
       x1="175.82039"
       y1="328.66599"
       x2="375.61816"
       y2="237.33362"
       gradientTransform="matrix(0.83663333,0,0,0.78506265,125.27773,122.95889)" />
    <linearGradient
       inkscape:collect="always"
       xlink:href="#linearGradient17518"
       id="linearGradient17754"
       gradientUnits="userSpaceOnUse"
       x1="17.190504"
       y1="237.33362"
       x2="375.61816"
       y2="237.33362"
       gradientTransform="matrix(0.83663333,0,0,0.78506265,125.27773,122.95889)" />
    <linearGradient
       inkscape:collect="always"
       xlink:href="#linearGradient17518"
       id="linearGradient17756"
       gradientUnits="userSpaceOnUse"
       x1="-523.5932"
       y1="331.06946"
       x2="375.61816"
       y2="237.33362"
       gradientTransform="matrix(0.83663333,0,0,0.78506265,128.05418,133.9176)" />
    <clipPath
       id="clip1-2">
      <path
         d="m 105.04297,150.28906 h 95.25 v 96 h -95.25 z m 0,0"
         id="path17875" />
    </clipPath>
    <clipPath
       id="clip2">
      <path
         d="m 40,160 h 48.5 v 83 H 40 Z m 0,0"
         id="path17878" />
    </clipPath>
    <clipPath
       id="clip3">
      <path
         d="m 14,146.77734 h 60 v 102.75 H 14 Z m 0,0"
         id="path17881" />
    </clipPath>
    <clipPath
       id="clip4">
      <path
         d="m 298.1875,151.75 h 76.5 v 96 h -76.5 z m 0,0"
         id="path17884" />
    </clipPath>
    <filter
       id="alpha"
       filterUnits="objectBoundingBox"
       x="0"
       y="0"
       width="1"
       height="1">
      <feColorMatrix
         type="matrix"
         in="SourceGraphic"
         values="0 0 0 0 1 0 0 0 0 1 0 0 0 0 1 0 0 0 1 0"
         id="feColorMatrix17887" />
    </filter>
    <mask
       id="mask0">
      <g
         filter="url(#alpha)"
         id="g17892">
        <rect
           x="0"
           y="0"
           width="375"
           height="375"
           style="fill:#000000;fill-opacity:0.298;stroke:none"
           id="rect17890" />
      </g>
    </mask>
    <clipPath
       id="clip6">
      <path
         d="M 0.160156,0.160156 H 66 V 89.199219 H 0.160156 Z m 0,0"
         id="path17895" />
    </clipPath>
    <clipPath
       id="clip5">
      <rect
         x="0"
         y="0"
         width="67"
         height="90"
         id="rect17898" />
    </clipPath>
    <g
       id="surface5"
       clip-path="url(#clip5)">
      <g
         clip-path="url(#clip6)"
         clip-rule="nonzero"
         id="g17903">
        <path
           style="fill:#05a63f;fill-opacity:1;fill-rule:nonzero;stroke:none"
           d="m 47.183594,30.253906 c -9.375,-15.886718 -14.0625,-29.902344 -14.0625,-29.902344 0,0 -32.8125,32.703126 -32.8125,56.066407 0,18.21875 14.53125,32.703125 32.8125,32.703125 -7.96875,0 -14.0625,-6.074219 -14.0625,-14.015625 0,-14.015625 14.0625,-28.03125 14.0625,-28.03125 2.8125,14.480469 14.53125,18.6875 14.0625,28.03125 -0.46875,7.941406 -6.09375,14.015625 -14.0625,14.015625 18.28125,0 32.8125,-14.484375 32.8125,-32.703125 0,-14.019531 -9.375,-28.035157 -14.0625,-37.378907 -2.34375,2.804688 -4.21875,9.34375 -4.6875,11.214844 z m 18.75,26.164063 c 0,0.933593 0,-0.9375 0,0 z m 0,0"
           id="path17901" />
      </g>
    </g>
    <clipPath
       id="clip7">
      <path
         d="m 213.62109,143.49219 h 75 V 246 h -75 z m 0,0"
         id="path17906" />
    </clipPath>
    <linearGradient
       inkscape:collect="always"
       xlink:href="#linearGradient3717"
       id="linearGradient1683"
       x1="455.44263"
       y1="729.97369"
       x2="1264.0509"
       y2="808.84564"
       gradientUnits="userSpaceOnUse"
       gradientTransform="translate(-1.79e-5)" />
    <linearGradient
       inkscape:collect="always"
       xlink:href="#linearGradient3717"
       id="linearGradient7309"
       x1="253.87862"
       y1="614.24115"
       x2="439.85062"
       y2="614.24115"
       gradientUnits="userSpaceOnUse"
       gradientTransform="matrix(0.72919135,0,0,0.72919135,146.99489,431.75931)" />
    <linearGradient
       inkscape:collect="always"
       xlink:href="#linearGradient3717"
       id="linearGradient1049"
       gradientUnits="userSpaceOnUse"
       x1="253.87862"
       y1="614.24115"
       x2="439.85062"
       y2="614.24115"
       gradientTransform="matrix(0.72919135,0,0,0.72919135,146.99489,431.75931)" />
    <linearGradient
       inkscape:collect="always"
       xlink:href="#linearGradient3717"
       id="linearGradient1051"
       gradientUnits="userSpaceOnUse"
       x1="253.87862"
       y1="614.24115"
       x2="439.85062"
       y2="614.24115"
       gradientTransform="matrix(0.72919135,0,0,0.72919135,146.99489,431.75931)" />
    <linearGradient
       inkscape:collect="always"
       xlink:href="#linearGradient3717"
       id="linearGradient1053"
       gradientUnits="userSpaceOnUse"
       x1="253.87862"
       y1="614.24115"
       x2="439.85062"
       y2="614.24115"
       gradientTransform="matrix(0.72919135,0,0,0.72919135,147.04027,428.10319)" />
    <linearGradient
       inkscape:collect="always"
       xlink:href="#linearGradient17518"
       id="linearGradient4142"
       gradientUnits="userSpaceOnUse"
       x1="831.6051"
       y1="846.81274"
       x2="81.277252"
       y2="1036.2212"
       gradientTransform="translate(2.2576885,183.41267)" />
    <linearGradient
       inkscape:collect="always"
       xlink:href="#linearGradient17518"
       id="linearGradient908"
       gradientUnits="userSpaceOnUse"
       x1="831.6051"
       y1="846.81274"
       x2="81.277252"
       y2="1036.2212"
       gradientTransform="translate(2.9575555,250.36167)" />
    <linearGradient
       inkscape:collect="always"
       xlink:href="#linearGradient17518"
       id="linearGradient910"
       gradientUnits="userSpaceOnUse"
       x1="831.6051"
       y1="846.81274"
       x2="81.277252"
       y2="1036.2212"
       gradientTransform="translate(2.9575555,250.36167)" />
    <linearGradient
       inkscape:collect="always"
       xlink:href="#linearGradient17518"
       id="linearGradient912"
       gradientUnits="userSpaceOnUse"
       x1="831.6051"
       y1="846.81274"
       x2="81.277252"
       y2="1036.2212"
       gradientTransform="translate(2.9575555,250.36167)" />
    <linearGradient
       inkscape:collect="always"
       xlink:href="#linearGradient17518"
       id="linearGradient914"
       gradientUnits="userSpaceOnUse"
       x1="831.6051"
       y1="846.81274"
       x2="81.277252"
       y2="1036.2212"
       gradientTransform="translate(2.9575555,250.36167)" />
    <linearGradient
       inkscape:collect="always"
       xlink:href="#linearGradient17518"
       id="linearGradient916"
       gradientUnits="userSpaceOnUse"
       x1="831.6051"
       y1="846.81274"
       x2="81.277252"
       y2="1036.2212"
       gradientTransform="translate(2.9575555,250.36167)" />
    <linearGradient
       inkscape:collect="always"
       xlink:href="#linearGradient17518"
       id="linearGradient918"
       gradientUnits="userSpaceOnUse"
       x1="831.6051"
       y1="846.81274"
       x2="81.277252"
       y2="1036.2212"
       gradientTransform="translate(2.9575555,250.36167)" />
    <linearGradient
       inkscape:collect="always"
       xlink:href="#linearGradient17518"
       id="linearGradient920"
       gradientUnits="userSpaceOnUse"
       x1="831.6051"
       y1="846.81274"
       x2="81.277252"
       y2="1036.2212"
       gradientTransform="translate(2.9575555,250.36167)" />
    <linearGradient
       inkscape:collect="always"
       xlink:href="#linearGradient17518"
       id="linearGradient922"
       gradientUnits="userSpaceOnUse"
       x1="831.6051"
       y1="846.81274"
       x2="81.277252"
       y2="1036.2212"
       gradientTransform="translate(2.9575555,250.36167)" />
    <linearGradient
       inkscape:collect="always"
       xlink:href="#linearGradient17518"
       id="linearGradient924"
       gradientUnits="userSpaceOnUse"
       x1="831.6051"
       y1="846.81274"
       x2="81.277252"
       y2="1036.2212"
       gradientTransform="translate(2.9575555,250.36167)" />
    <linearGradient
       inkscape:collect="always"
       xlink:href="#linearGradient17518"
       id="linearGradient926"
       gradientUnits="userSpaceOnUse"
       x1="831.6051"
       y1="846.81274"
       x2="81.277252"
       y2="1036.2212"
       gradientTransform="translate(2.9575555,250.36167)" />
    <linearGradient
       inkscape:collect="always"
       xlink:href="#linearGradient17518"
       id="linearGradient928"
       gradientUnits="userSpaceOnUse"
       x1="831.6051"
       y1="846.81274"
       x2="81.277252"
       y2="1036.2212"
       gradientTransform="translate(2.9575555,250.36167)" />
    <linearGradient
       inkscape:collect="always"
       xlink:href="#linearGradient17518"
       id="linearGradient930"
       gradientUnits="userSpaceOnUse"
       x1="831.6051"
       y1="846.81274"
       x2="81.277252"
       y2="1036.2212"
       gradientTransform="translate(2.9575555,250.36167)" />
    <linearGradient
       inkscape:collect="always"
       xlink:href="#linearGradient17518"
       id="linearGradient932"
       gradientUnits="userSpaceOnUse"
       x1="831.6051"
       y1="846.81274"
       x2="81.277252"
       y2="1036.2212"
       gradientTransform="translate(2.9575555,250.36167)" />
    <linearGradient
       inkscape:collect="always"
       xlink:href="#linearGradient17518"
       id="linearGradient934"
       gradientUnits="userSpaceOnUse"
       x1="831.6051"
       y1="846.81274"
       x2="81.277252"
       y2="1036.2212"
       gradientTransform="translate(2.9575555,250.36167)" />
    <linearGradient
       inkscape:collect="always"
       xlink:href="#linearGradient17518"
       id="linearGradient936"
       gradientUnits="userSpaceOnUse"
       x1="831.6051"
       y1="846.81274"
       x2="81.277252"
       y2="1036.2212"
       gradientTransform="translate(2.9575555,250.36167)" />
    <linearGradient
       inkscape:collect="always"
       xlink:href="#linearGradient17518"
       id="linearGradient938"
       gradientUnits="userSpaceOnUse"
       x1="831.6051"
       y1="846.81274"
       x2="81.277252"
       y2="1036.2212"
       gradientTransform="translate(2.9575555,250.36167)" />
    <linearGradient
       inkscape:collect="always"
       xlink:href="#linearGradient17518"
       id="linearGradient940"
       gradientUnits="userSpaceOnUse"
       x1="831.6051"
       y1="846.81274"
       x2="81.277252"
       y2="1036.2212"
       gradientTransform="translate(2.9575555,250.36167)" />
    <linearGradient
       inkscape:collect="always"
       xlink:href="#linearGradient17518"
       id="linearGradient942"
       gradientUnits="userSpaceOnUse"
       x1="831.6051"
       y1="846.81274"
       x2="81.277252"
       y2="1036.2212"
       gradientTransform="translate(2.9575555,250.36167)" />
    <linearGradient
       inkscape:collect="always"
       xlink:href="#linearGradient17518"
       id="linearGradient944"
       gradientUnits="userSpaceOnUse"
       x1="831.6051"
       y1="846.81274"
       x2="81.277252"
       y2="1036.2212"
       gradientTransform="translate(2.9575555,250.36167)" />
    <linearGradient
       inkscape:collect="always"
       xlink:href="#linearGradient17518"
       id="linearGradient946"
       gradientUnits="userSpaceOnUse"
       x1="831.6051"
       y1="846.81274"
       x2="81.277252"
       y2="1036.2212"
       gradientTransform="translate(2.9575555,250.36167)" />
    <linearGradient
       inkscape:collect="always"
       xlink:href="#linearGradient17518"
       id="linearGradient948"
       gradientUnits="userSpaceOnUse"
       x1="831.6051"
       y1="846.81274"
       x2="81.277252"
       y2="1036.2212"
       gradientTransform="translate(35.506082,-2900.3956)" />
    <linearGradient
       inkscape:collect="always"
       xlink:href="#linearGradient17518"
       id="linearGradient950"
       gradientUnits="userSpaceOnUse"
       x1="831.6051"
       y1="846.81274"
       x2="81.277252"
       y2="1036.2212"
       gradientTransform="translate(35.506082,-2900.3956)" />
    <linearGradient
       inkscape:collect="always"
       xlink:href="#linearGradient17518"
       id="linearGradient952"
       gradientUnits="userSpaceOnUse"
       x1="831.6051"
       y1="846.81274"
       x2="81.277252"
       y2="1036.2212"
       gradientTransform="translate(2.2576885,183.41267)" />
  </defs>
  <sodipodi:namedview
     id="namedview30"
     pagecolor="#505050"
     bordercolor="#eeeeee"
     borderopacity="1"
     inkscape:pageshadow="0"
     inkscape:pageopacity="0"
     inkscape:pagecheckerboard="0"
     inkscape:document-units="pt"
     showgrid="false"
     inkscape:zoom="0.31204713"
     inkscape:cx="977.41646"
     inkscape:cy="632.91721"
     inkscape:window-width="1920"
     inkscape:window-height="1009"
     inkscape:window-x="-8"
     inkscape:window-y="-8"
     inkscape:window-maximized="1"
     inkscape:current-layer="svg28"
     showguides="true"
     inkscape:guide-bbox="true"
     height="1413pt"
     units="px" />
  <metadata
     id="metadata2">
Created by potrace 1.16, written by Peter Selinger 2001-2019
</metadata>
  <path
     id="path6"
     style="fill:#000000;fill-opacity:1;stroke:none;stroke-width:0.144644"
     d="m 263.85458,285.43964 -8.90327,4.37128 c -33.3197,16.16976 -46.5344,66.71773 -27.72026,106.92361 5.17028,11.36253 17.95328,24.18154 29.01196,29.42578 7.61183,3.64185 7.61117,3.64207 54.57472,3.64207 27.00044,0 48.5443,-0.58237 50.55498,-1.45643 l 3.73447,-1.45641 v 16.1693 c 0,17.77219 -1.57958,23.74572 -7.89883,28.69864 -4.02136,3.20472 -4.16606,3.2041 -82.58225,3.2041 h -78.70314 l -4.30901,-4.51589 c -5.64491,-5.86205 -7.23672,-13.15365 -7.42073,-35.88432 h -0.98234 -3.47734 c -1.17139,0 -2.34411,-1e-5 -3.51549,0 -1.55386,2e-5 -3.10671,3e-5 -4.66056,0 -1.16651,0 -2.33292,3.1e-4 -3.49944,0 -1.16216,0 -2.32521,7.5e-4 -3.48738,0.004 -0.46821,0 -0.93619,-8.4e-4 -1.4042,-0.004 -0.0723,-4.6e-4 -0.14464,4.4e-4 -0.21695,0 h -1.86623 c -0.72749,0.028 -1.45621,0.0292 -2.18363,0 h -2.03698 c -0.0405,0.0925 -0.0597,0.20238 -0.10447,0.29129 -0.19585,0.38885 -0.87236,-0.003 -1.30576,-0.0442 -0.57002,-0.0546 -1.10335,-0.17256 -1.64927,-0.2471 h -5.20296 -2.99721 c 0.0134,1.21659 0.0221,2.37161 0.0522,3.83697 0.57448,27.9693 0.86217,30.7373 4.59627,41.51708 6.75011,20.10296 18.09638,34.08581 33.75086,41.51513 l 8.04349,3.78872 h 83.29941 83.29941 l 8.32874,-3.93333 c 16.80347,-8.01209 31.74035,-30.00982 35.47446,-51.86077 1.14896,-6.84666 1.4363,-29.28048 1.14907,-70.36036 -0.57449,-57.83237 -0.71846,-60.59956 -3.73447,-68.75727 -6.89374,-18.93756 -18.09619,-33.06825 -32.02726,-40.64327 -6.17565,-3.35049 -7.03677,-3.34969 -55.14925,-3.7867 z m 47.21425,49.53047 c 20.46576,0 40.96797,0.72689 43.69674,2.18363 12.49488,6.5553 13.78765,30.88425 2.01086,40.20734 -3.30325,2.76779 -5.88785,2.91284 -45.5268,2.91284 -39.63895,0 -42.22356,-0.14505 -45.5268,-2.91284 -11.63318,-9.32309 -10.48504,-33.21502 1.86622,-40.20734 2.58515,-1.45674 23.01402,-2.18363 43.47978,-2.18363 z" />
  <path
     id="path8"
     style="fill:#000000;stroke:none;stroke-width:0.137138"
     d="m 437.72548,324.70483 c -0.0823,0.0385 -0.16464,0.0795 -0.24709,0.11656 v 0.42587 c 0.0971,-0.21508 0.15867,-0.34757 0.24709,-0.54238 z" />
  <path
     d="m 147.01899,345.78364 c -1.09711,1.09711 -1.64566,8.09116 -1.64566,22.35353 0,14.26237 0.54855,21.25642 1.64566,22.35353 1.0971,1.09711 6.71977,1.64566 16.31944,1.64566 19.33649,0 19.06222,0.27427 19.06222,-23.99919 0,-24.27346 0.27427,-23.99919 -19.06222,-23.99919 -9.59967,0 -15.22234,0.54856 -16.31944,1.64566 z"
     id="path22"
     style="fill:#000000;fill-opacity:1;stroke:none;stroke-width:0.137138" />
  <g
     aria-label="ENERGIE"
     transform="scale(0.95793395,1.0439133)"
     id="text4715"
     style="font-size:206.359px;line-height:1.25;font-family:Bahnschrift;-inkscape-font-specification:Bahnschrift;font-variant-ligatures:none;stroke-width:8.59831">
    <path
       d="M 492.89176,307.76585 H 598.34121 V 281.97098 H 492.89176 c -21.46134,0 -38.79549,17.54051 -38.79549,39.00185 v 66.44759 c 0,21.46134 17.33415,39.00185 38.79549,39.00185 H 598.34121 V 400.6274 H 492.89176 c -7.22256,0 -13.20698,-5.98441 -13.20698,-13.20698 v -27.23939 h 92.86155 v -25.79487 h -92.86155 v -13.41333 c 0,-7.22257 5.98442,-13.20698 13.20698,-13.20698 z"
       style="font-family:Azonix;-inkscape-font-specification:'Azonix, Normal'"
       id="path42473" />
    <path
       d="m 737.63337,281.97098 v 92.03611 l -92.86155,-71.60657 -25.79487,-19.81047 v 144.03858 h 25.79487 V 335.2116 l 92.86155,71.60657 25.79487,19.81046 V 282.17734 Z"
       style="font-family:Azonix;-inkscape-font-specification:'Azonix, Normal'"
       id="path42475" />
    <path
       d="M 823.06583,307.76585 H 928.51528 V 281.97098 H 823.06583 c -21.46133,0 -38.79549,17.54051 -38.79549,39.00185 v 66.44759 c 0,21.46134 17.33416,39.00185 38.79549,39.00185 H 928.51528 V 400.6274 H 823.06583 c -7.22256,0 -13.20697,-5.98441 -13.20697,-13.20698 v -27.23939 h 92.86154 v -25.79487 h -92.86154 v -13.41333 c 0,-7.22257 5.98441,-13.20698 13.20697,-13.20698 z"
       style="font-family:Azonix;-inkscape-font-specification:'Azonix, Normal'"
       id="path42477" />
    <path
       d="m 1045.108,359.76832 c 0,0 0,0 0,0 3.9208,-0.41272 7.6352,-1.44452 11.1433,-3.09539 13.4134,-6.19077 22.6995,-19.81046 22.6995,-35.49374 0,-10.73067 -4.3335,-20.42955 -11.3497,-27.65211 -7.0162,-7.01621 -16.7151,-11.34974 -27.4458,-11.34974 h -91.21064 v 144.45129 h 25.79487 v -66.4476 h 25.79487 c 9.2862,0 17.3342,4.95262 21.8741,12.38154 l 0.619,1.23816 13.8261,27.03303 13.207,25.79487 h 28.8902 l -13.207,-25.79487 z m -70.36847,-25.1758 v -26.62031 h 65.41577 c 4.5399,0 7.6353,2.06359 9.2862,3.71446 1.4445,1.44451 3.9208,4.74626 3.9208,9.49252 0,5.15897 -3.0954,9.90523 -7.8416,11.96882 -1.6509,0.82543 -3.5081,1.23815 -5.3654,1.23815 z"
       style="font-family:Azonix;-inkscape-font-specification:'Azonix, Normal'"
       id="path42479" />
    <path
       d="m 1172.0186,307.76585 h 72.2257 v -25.79487 h -72.2257 c -39.8273,0 -72.2256,32.39836 -72.2256,72.22564 0,39.82729 32.3983,72.22565 72.2256,72.22565 h 72.2257 v -79.24185 h -72.2257 v 25.79487 h 46.4308 v 27.65211 h -46.4308 c -25.5885,0 -46.4307,-20.84226 -46.4307,-46.43078 0,-25.58851 20.8422,-46.43077 46.4307,-46.43077 z"
       style="font-family:Azonix;-inkscape-font-specification:'Azonix, Normal'"
       id="path42481" />
    <path
       d="M 1290.6749,426.42227 V 281.97098 H 1264.88 v 144.45129 z"
       style="font-family:Azonix;-inkscape-font-specification:'Azonix, Normal'"
       id="path42483" />
    <path
       d="m 1350.3124,307.76585 h 105.4494 v -25.79487 h -105.4494 c -21.4614,0 -38.7955,17.54051 -38.7955,39.00185 v 66.44759 c 0,21.46134 17.3341,39.00185 38.7955,39.00185 h 105.4494 V 400.6274 h -105.4494 c -7.2226,0 -13.207,-5.98441 -13.207,-13.20698 v -27.23939 h 92.8615 v -25.79487 h -92.8615 v -13.41333 c 0,-7.22257 5.9844,-13.20698 13.207,-13.20698 z"
       style="font-family:Azonix;-inkscape-font-specification:'Azonix, Normal'"
       id="path42485" />
  </g>
  <g
     id="surface1"
     transform="matrix(1.1952667,0,0,1.2737836,-12.958393,-120.69681)"
     style="fill:url(#linearGradient17732);fill-opacity:1;stroke:none">
    <path
       style="fill:#a4e497;fill-opacity:1;fill-rule:evenodd;stroke:none"
       d="m 109.35847,256.69652 c 31.76563,-70.62891 79.9375,-93.83985 155.65625,-98.32422 39.82813,-2.36328 29.88281,-43.36328 -7.95312,-38.86328 -80.11719,9.52343 -125.64844,61.34375 -147.70313,137.1875"
       id="path11549" />
    <path
       style="fill:#fff1cb;fill-opacity:1;fill-rule:evenodd;stroke:none"
       d="M 101.40144,306.40745 C 86.245192,238.1887 108.54988,195.48558 160.85847,151.43089 188.38581,128.23167 159.0655,103.96605 134.13191,127.60667 81.350661,177.66527 76.389723,239.66136 101.40144,306.40745"
       id="path11551" />
    <path
       style="fill:#ffe18d;fill-opacity:1;fill-rule:evenodd;stroke:none"
       d="M 128.94441,344.71605 C 78.256911,307.22777 68.14363,264.96995 77.667067,204.02855 82.682692,171.9973 48.342848,172.78636 45.381911,203.61839 39.08113,268.91917 72.401442,314.05589 128.94441,344.71605"
       id="path11553" />
    <g
       clip-path="url(#clip1)"
       clip-rule="nonzero"
       id="g11557"
       style="fill:url(#linearGradient17754);fill-opacity:1"
       transform="translate(16.995192,50.985577)">
      <path
         style="fill:url(#linearGradient17752);fill-opacity:1;fill-rule:evenodd;stroke:none"
         d="M 146.57812,300.73047 C 89.871094,305.50391 57.832031,282.90625 27.976562,235.95312 12.269531,211.25 -10.515625,232.24609 5.855469,254.89062 c 34.652343,47.98047 84.132812,58.72266 140.722651,45.83985"
         id="path11555" />
    </g>
    <path
       style="fill:url(#linearGradient17756);fill-opacity:1;fill-rule:evenodd;stroke:none"
       d="m 133.58503,232.21995 c 72.30469,-46.41796 131.07813,-38.83984 204.14453,2.76954 38.42579,21.87109 54.01954,-22.23438 16.13672,-40.92579 -80.19531,-39.58593 -153.84765,-18.97265 -220.28125,38.15625"
       id="path11559" />
  </g>
  <g
     id="g6986"
     style="fill:url(#linearGradient4142);fill-opacity:1"
     transform="matrix(1.3713821,0,0,1.3713821,-201.58636,-592.10699)">
    <g
       id="g6961"
       style="fill:url(#linearGradient952);fill-opacity:1">
      <g
         id="g31707"
         transform="matrix(0.06358598,0,0,-0.06323712,383.91023,1198.7204)"
         style="fill:url(#linearGradient950);fill-opacity:1;stroke:none">
        <g
           id="g31684"
           style="fill:url(#linearGradient948);fill-opacity:1">
          <g
             id="g30460"
             style="fill:url(#linearGradient946);fill-opacity:1"
             transform="matrix(12.005216,0,0,-11.584823,7742.2225,7569.6618)">
            <g
               clip-path="url(#clip1-2)"
               clip-rule="nonzero"
               id="g17913"
               style="fill:url(#linearGradient910);fill-opacity:1">
              <path
                 style="fill:url(#linearGradient908);fill-opacity:1;fill-rule:nonzero;stroke:none"
                 d="m 200.29297,190.77734 c 0,2.1211 -0.73047,4.14453 -2.09375,5.83594 -1.76563,2.12109 -4.32813,3.35156 -7.08594,3.35156 h -26.15234 c -0.92969,0 -1.66407,-0.73047 -1.66407,-1.66015 0,-0.92969 0.73438,-1.65625 1.66407,-1.65625 h 26.15234 c 1.76172,0 3.39063,-0.76563 4.52344,-2.125 1.1289,-1.35938 1.5625,-3.14844 1.23047,-4.875 -4.25782,-21.58985 -23.42188,-36.67578 -45.57813,-35.84766 -23.1914,0.86328 -42.01953,19.66406 -42.88672,42.74609 -0.46484,12.20313 3.96094,23.8125 12.44532,32.60157 8.51562,8.82031 19.92578,13.66015 32.20312,13.66015 20.5625,0 38.35938,-13.85937 43.35156,-33.72656 0.23047,-0.89453 1.12891,-1.42578 2.02735,-1.19141 0.89843,0.23047 1.42968,1.125 1.19922,2.01954 -5.35547,21.32421 -24.51954,36.21484 -46.57813,36.21484 -13.17578,0 -25.44922,-5.20703 -34.5664,-14.65625 -9.11719,-9.45313 -13.875,-21.88672 -13.375,-35.05469 0.93359,-24.80469 21.19531,-45 46.07812,-45.92969 23.78906,-0.89453 44.38281,15.28907 48.97266,38.5 0.10156,0.59766 0.13281,1.19532 0.13281,1.79297 z m -79.64453,17.57422 c 0,1.72656 1.39453,3.08594 3.09375,3.08594 h 23.28906 c 1.72656,0 3.09375,-1.39453 3.09375,-3.08594 0,-1.72265 -1.39844,-3.08203 -3.09375,-3.08203 h -23.28906 c -1.69922,-0.0352 -3.09375,1.35938 -3.09375,3.08203 z m 3.125,-23.21094 h 23.28906 c 1.73047,0 3.09375,1.39063 3.09375,3.08204 0,1.6914 -1.39844,3.08593 -3.09375,3.08593 h -23.28906 c -1.73047,0 -3.09375,-1.39453 -3.09375,-3.08593 0,-1.69141 1.36328,-3.08204 3.09375,-3.08204 z m 0,0"
                 id="path17911" />
            </g>
            <path
               style="fill:url(#linearGradient912);fill-opacity:1;fill-rule:nonzero;stroke:none"
               d="m 135.15234,177.48047 v 41.61719 c 0,1.99218 2.32813,3.08593 3.85938,1.79296 l 8.01953,-4.84375 c 1.46094,-0.89453 3.16016,-1.35937 4.85547,-1.35937 h 4.72265 c 8.58594,0 15.50391,-6.92969 15.50391,-15.45313 v -1.92578 c 0,-8.55468 -6.95312,-15.45312 -15.50391,-15.45312 h -4.72265 c -1.73047,0 -3.39453,-0.46485 -4.85547,-1.35938 l -8.01953,-4.83984 c -1.53125,-1.26172 -3.85938,-0.16797 -3.85938,1.82422 z m 0,0"
               id="path17915" />
            <path
               style="fill:url(#linearGradient914);fill-opacity:1;fill-rule:nonzero;stroke:none"
               d="m 7.390625,198.15234 c 0,-19.49218 15.355469,-35.43359 34.648437,-36.58984 l 5.589844,-7.27344 c -1.121094,-0.0898 -2.234375,-0.17187 -3.378906,-0.17187 -24.429688,0 -44.234375,19.71484 -44.234375,44.03515 0,16.11328 8.71875,30.16016 21.691406,37.83203 L 23.625,228.54687 C 13.835938,221.94531 7.390625,210.77734 7.390625,198.15234 Z m 0,0"
               id="path17917" />
            <g
               clip-path="url(#clip2)"
               clip-rule="nonzero"
               id="g17921"
               style="fill:url(#linearGradient918);fill-opacity:1">
              <path
                 style="fill:url(#linearGradient916);fill-opacity:1;fill-rule:nonzero;stroke:none"
                 d="m 66.640625,160.22266 -2.023437,7.36718 c 9.933593,6.58594 16.492187,17.81641 16.492187,30.5625 0,19.48438 -15.355469,35.4336 -34.648437,36.58203 l -5.59375,7.28125 c 1.125,0.0859 2.238281,0.17188 3.382812,0.17188 24.429688,0 44.234375,-19.71875 44.234375,-44.03516 0,-16.17578 -8.789063,-30.27734 -21.84375,-37.92968 z m 0,0"
                 id="path17919" />
            </g>
            <g
               clip-path="url(#clip3)"
               clip-rule="nonzero"
               id="g17925"
               style="fill:url(#linearGradient922);fill-opacity:1">
              <path
                 style="fill:url(#linearGradient920);fill-opacity:1;fill-rule:nonzero;stroke:none"
                 d="M 73.738281,187.14062 H 51.621094 l 2.167968,-7.91796 4.144532,-15.11329 1.945312,-7.11328 2.800782,-10.21875 -6.847657,8.91797 -4.910156,6.39063 -12.265625,15.96875 -23.894531,31.10547 h 22.117187 l -2.15625,7.87109 -4.15625,15.16406 -1.945312,7.10938 -2.800782,10.22265 6.847657,-8.91797 4.910156,-6.39453 L 50,218.03906 Z m 0,0"
                 id="path17923" />
            </g>
            <g
               clip-path="url(#clip4)"
               clip-rule="nonzero"
               id="g17929"
               style="fill:url(#linearGradient926);fill-opacity:1">
              <path
                 style="fill:url(#linearGradient924);fill-opacity:1;fill-rule:nonzero;stroke:none"
                 d="m 336.4375,225.34766 c -19.33594,0 -35.0625,-15.78516 -35.0625,-35.19922 0,-19.41016 15.72656,-35.19532 35.0625,-35.19532 19.33594,0 35.0625,15.78516 35.0625,35.19532 0,19.41406 -15.72656,35.19922 -35.0625,35.19922 z m -3.1875,6.39843 v -3.34375 c 1.05078,0.0898 2.11719,0.14453 3.1875,0.14453 1.07031,0 2.13672,-0.0547 3.1875,-0.14453 v 3.34375 z m 11.15625,3.19922 v 3.19922 h -15.9375 v -3.19922 z m -3.1875,9.60156 h -9.5625 v -3.19921 h 9.5625 z m 33.46875,-54.39843 c 0,-21.17188 -17.15625,-38.39844 -38.25,-38.39844 -21.09375,0 -38.25,17.22656 -38.25,38.39844 0,18.99218 13.80859,34.79687 31.875,37.85547 v 3.74218 h -3.1875 c -0.87891,0 -1.59375,0.71875 -1.59375,1.60157 v 6.39843 c 0,0.88282 0.71484,1.60157 1.59375,1.60157 h 1.59375 v 4.79687 c 0,0.88281 0.71484,1.60156 1.59375,1.60156 h 12.75 c 0.87891,0 1.59375,-0.71875 1.59375,-1.60156 v -4.79687 H 346 c 0.87891,0 1.59375,-0.71875 1.59375,-1.60157 v -6.39843 c 0,-0.88282 -0.71484,-1.60157 -1.59375,-1.60157 h -3.1875 v -3.74218 c 18.06641,-3.0586 31.875,-18.86329 31.875,-37.85547"
                 id="path17927" />
            </g>
            <path
               style="fill:url(#linearGradient928);fill-opacity:1;fill-rule:nonzero;stroke:none"
               d="m 336.4375,218.94922 c -15.82031,0 -28.6875,-12.91797 -28.6875,-28.80078 0,-15.87891 12.86719,-28.79688 28.6875,-28.79688 15.82031,0 28.6875,12.91797 28.6875,28.79688 0,15.88281 -12.86719,28.80078 -28.6875,28.80078 z m 0,-60.79688 c -17.57422,0 -31.875,14.35547 -31.875,31.9961 0,17.64453 14.30078,32 31.875,32 17.57422,0 31.875,-14.35547 31.875,-32 0,-17.64063 -14.30078,-31.9961 -31.875,-31.9961"
               id="path17931" />
            <path
               style="fill:url(#linearGradient930);fill-opacity:1;fill-rule:nonzero;stroke:none"
               d="m 336.4375,212.54687 c -4.875,0 -9.5,-1.55078 -13.38281,-4.47265 l -1.91797,2.55469 c 4.4375,3.35156 9.73047,5.11718 15.30078,5.11718 5.57422,0 10.86328,-1.76562 15.30469,-5.11718 l -1.91407,-2.5625 c -3.88281,2.92968 -8.51562,4.48046 -13.39062,4.48046"
               id="path17933" />
            <path
               style="fill:url(#linearGradient932);fill-opacity:1;fill-rule:nonzero;stroke:none"
               d="m 352.30078,188.55078 c -0.3125,-3.14453 -1.52344,-6.08984 -3.52344,-8.52734 l 4.52735,-4.54297 c 3.17187,3.66797 5.05468,8.21875 5.39062,13.07031 z m -14.26953,-14.32422 v -6.41797 c 4.83203,0.33594 9.36328,2.22266 13.01953,5.41016 l -4.52734,4.54297 c -2.42969,-2.00391 -5.35938,-3.22266 -8.49219,-3.53516 z m -3.1875,0 c -3.13281,0.3125 -6.0625,1.53125 -8.49219,3.53516 l -4.52344,-4.54297 c 3.65235,-3.1875 8.1836,-5.07422 13.01563,-5.41016 z m -14.26953,14.32422 h -6.39453 c 0.33984,-4.85156 2.21875,-9.40234 5.39453,-13.07031 l 4.52344,4.54297 c -1.9961,2.4375 -3.21094,5.38281 -3.52344,8.52734 z m 33.89453,-16.5 c -4.8125,-4.83594 -11.21875,-7.5 -18.03125,-7.5 -6.80859,0 -13.21484,2.66406 -18.02734,7.5 -4.82032,4.83203 -7.47266,11.26172 -7.47266,18.09766 0,0.88281 0.71484,1.60156 1.59375,1.60156 h 9.5625 c 0.87891,0 1.59375,-0.71875 1.59375,-1.60156 0,-3.41797 1.32812,-6.62891 3.73437,-9.04688 2.41016,-2.42187 5.60938,-3.75 9.01563,-3.75 3.40625,0 6.60547,1.32813 9.01562,3.75 2.41016,2.41797 3.73438,5.62891 3.73438,9.04688 0,0.88281 0.71484,1.60156 1.59375,1.60156 h 9.5625 c 0.87891,0 1.59375,-0.71875 1.59375,-1.60156 0,-6.83594 -2.65234,-13.26563 -7.46875,-18.09766"
               id="path17935" />
            <path
               style="fill:url(#linearGradient934);fill-opacity:1;fill-rule:nonzero;stroke:none"
               d="m 336.4375,188.55078 c 0.87891,0 1.59375,0.71875 1.59375,1.59766 0,0.88281 -0.71484,1.60156 -1.59375,1.60156 -0.87891,0 -1.59375,-0.71875 -1.59375,-1.60156 0,-0.87891 0.71484,-1.59766 1.59375,-1.59766 z m -9.89063,9.26563 c -0.625,0.625 -0.625,1.63671 0,2.26171 0.3086,0.3125 0.71485,0.46875 1.125,0.46875 0.41016,0 0.81641,-0.15625 1.12891,-0.46875 l 5.57813,-5.59765 c 0.004,-0.008 0.004,-0.008 0.0117,-0.0117 0.6211,0.30078 1.3125,0.48047 2.04688,0.48047 2.64062,0 4.78125,-2.14844 4.78125,-4.80078 0,-0.73828 -0.17969,-1.42969 -0.48047,-2.05469 0.008,-0.008 0.008,-0.008 0.0156,-0.0117 l 3.1875,-3.19922 c 0.62109,-0.625 0.62109,-1.64062 0,-2.26562 -0.625,-0.625 -1.63282,-0.625 -2.25391,0 l -3.1875,3.19922 c -0.008,0.008 -0.008,0.008 -0.0156,0.0156 -0.62109,-0.30078 -1.3125,-0.48437 -2.04687,-0.48437 -2.64063,0 -4.78125,2.15234 -4.78125,4.80078 0,0.73828 0.17969,1.43359 0.48047,2.05859 -0.008,0.004 -0.008,0.004 -0.0117,0.0117 l -5.57813,5.59766"
               id="path17937" />
            <path
               style="fill:url(#linearGradient936);fill-opacity:1;fill-rule:nonzero;stroke:none"
               d="m 352.375,207.75 h 3.1875 v -3.20313 H 352.375 V 207.75"
               id="path17939" />
            <path
               style="fill:url(#linearGradient938);fill-opacity:1;fill-rule:nonzero;stroke:none"
               d="M 317.3125,207.75 H 320.5 v -3.20313 h -3.1875 V 207.75"
               id="path17941" />
            <path
               style="fill:url(#linearGradient940);fill-opacity:1;fill-rule:nonzero;stroke:none"
               d="m 251.12109,245.79297 c -10.3125,0 -18.75,-8.41016 -18.75,-18.6875 0,-15.88672 15,-30.83594 15.46875,-31.30469 l 6.09375,-6.07422 1.40625,8.87891 c 0.9375,6.07422 4.21875,10.27734 7.5,14.01562 3.28125,4.20703 7.03125,8.87891 6.5625,15.41797 0,9.8125 -8.4375,17.75391 -18.28125,17.75391 z m -1.875,-37.375 c -3.75,4.67187 -7.5,11.67969 -7.5,18.6875 0,5.14062 4.21875,9.34375 9.375,9.34375 5.15625,0 8.90625,-4.20313 9.375,-9.8125 0,-2.80078 -1.40625,-5.13672 -4.6875,-8.875 -1.875,-2.33594 -4.6875,-5.60547 -6.5625,-9.34375 z m 0,0"
               id="path17943" />
            <g
               clip-path="url(#clip7)"
               clip-rule="nonzero"
               id="g17949"
               style="fill:url(#linearGradient944);fill-opacity:1">
              <path
                 style="fill:url(#linearGradient942);fill-opacity:1;fill-rule:nonzero;stroke:none"
                 d="m 251.12109,245.79297 c -20.625,0 -37.5,-16.82031 -37.5,-37.375 0,-25.23047 32.8125,-57.9375 34.21875,-59.33985 l 5.15625,-5.13671 2.34375,7.00781 c 0,0 2.8125,8.875 8.90625,20.08984 0.46875,-0.93359 1.40625,-2.33594 1.875,-2.80469 l 4.6875,-5.60546 3.28125,6.54296 c 0.9375,1.86719 1.875,3.73438 2.8125,5.60547 4.21875,7.94141 9.84375,18.22266 11.25,28.96875 v 0.9336 c 0,0.93359 0,2.33593 0.46875,3.26953 l -0.46875,5.14062 c -1.875,18.21875 -17.8125,32.70313 -37.03125,32.70313 z m -1.875,-84.56641 c -10.3125,11.21485 -26.25,32.23828 -26.25,47.19141 0,15.41797 12.65625,28.03125 28.125,28.03125 15.46875,0 28.125,-12.61328 28.125,-28.03125 0,-9.34375 -4.6875,-18.69141 -8.90625,-26.63281 -0.46875,0.46875 -0.46875,0.93359 -0.46875,1.40234 l -2.34375,12.61328 -6.5625,-10.74609 c -5.15625,-9.8086 -9.375,-18.21875 -11.71875,-23.82813 z m 0,0"
                 id="path17947" />
            </g>
          </g>
        </g>
      </g>
    </g>
  </g>
  <rect
     style="fill:url(#linearGradient1683);fill-opacity:1;stroke:none;stroke-width:1.0101"
     id="rect23636"
     width="938.46149"
     height="41.814964"
     x="452.34644"
     y="478.44485"
     ry="20.907482" />
  <path
     id="rect2689"
     style="fill:#000000;fill-opacity:1;stroke-width:1.75715"
     d="m 164.8927,404.46503 c -10.83679,0 -19.56147,12.17971 -19.56147,27.30799 0,5.17204 0.77309,19.16727 0.7973,16.27688 0.52502,0.0416 3.06587,-2.05089 3.63843,-1.92293 1.109,0.24824 2.21509,0.51533 3.32629,0.74499 0.68165,-0.42255 1.82878,-0.042 2.62931,-0.25924 1.66499,0.30239 2.48381,0.4462 4.15726,0.4052 1.19066,-0.0307 3.21872,-0.20464 4.40939,-0.20464 1.59598,-0.001 3.19129,-0.004 4.78728,-0.001 1.18346,4.4e-4 2.36836,0 3.55181,0 1.17223,1e-4 2.34305,4e-5 3.51528,0 h 3.53556 4.33959 c 0.28143,-5.13179 0.12644,-9.4731 0.12644,-15.03889 0,-15.12828 -8.41568,-27.30799 -19.25249,-27.30799 z m -9.57448,42.72893 c -0.0182,-10e-4 -0.0333,-10e-4 -0.0385,0.0149 -0.004,0.0137 -0.008,0.0261 -0.0123,0.0381 0.0514,0.007 0.10313,0.0149 0.15443,0.0218 0.037,0.005 -0.0492,-0.0634 -0.10367,-0.0736 z"
     sodipodi:nodetypes="cscccccccssccssccccccc" />
  <g
     id="g7301"
     style="fill:url(#linearGradient7309);fill-opacity:1"
     transform="matrix(1.3713821,0,0,1.3713821,-201.58636,-592.10699)">
    <path
       d="m 291.03747,562.19453 c -3.17403,0.42917 -8.46409,2.14583 -11.63813,3.86248 -6.66548,3.32603 -14.49477,10.19266 -13.54256,11.80203 v 0 c 4.86179,-7.98112 -5.29006,5.36456 -6.13647,9.87078 -0.42321,1.93124 5.17919,-8.51295 4.65019,-8.83482 -0.52901,-0.32187 -7.29522,11.73168 -7.40102,12.48272 -0.88759,2.60717 -0.81753,3.57816 -1.26962,6.00831 -1.69282,5.14997 -1.90442,10.08536 -1.79862,35.62065 0,16.73742 -0.1949,26.27966 1.16381,26.6082 l 0.52901,1.2875 c -0.3174,0.53645 3.70304,1.07291 8.8873,1.28749 5.18427,0.21458 9.20471,0 8.88731,-0.53645 -0.2116,-0.42917 0.44295,0.55955 0.97195,0.55955 0.63481,0 -0.85906,-1.51491 -0.85906,-0.76387 0,0.64375 2.42634,1.06265 3.37855,-0.11756 0.84641,-1.07291 -19.10798,0.31161 -19.10798,0.31161 -0.4232,0.85833 20.39132,0.74218 21.34353,-0.43802 1.88114,-2.84963 2.40475,-6.41967 2.63854,-27.12554 0.15022,-13.3041 -0.32788,-25.64258 -0.32464,-27.57382 l -0.14528,-3.96977 c -0.0142,-0.38658 -0.19702,-3.13457 2.15278,-4.66848 l 3.91737,-0.3742 c 0,0 25.4981,-0.75104 57.34427,-0.64375 57.87328,0.21458 57.97908,0.21458 61.25892,2.57499 4.44365,3.21873 5.81906,5.04268 6.03067,8.36871 0.1058,1.50207 0.95221,3.21873 1.79862,3.75519 1.05801,0.75103 -0.12858,-6.44876 -0.97499,-6.44876 -1.58702,0 -0.61203,16.856 0.86919,19.10911 1.16381,1.93124 17.42998,16.53862 25.49809,0.21458 1.58702,-2.57498 0.21161,-22.9603 -1.79862,-27.89569 -0.3174,-0.85833 -0.74061,-2.36041 -0.95221,-3.32603 -0.529,-2.68228 -9.74839,-18.91352 -10.38319,-18.26977 -3.45753,2.71513 6.04534,11.18856 6.04534,10.11565 0.1058,-1.07292 -0.4232,-1.82395 -1.16381,-1.60937 -0.84641,0.10729 -1.16382,-0.10729 -0.84641,-0.64375 0.84641,-1.39478 -4.54946,-8.79787 -6.34808,-8.79787 -0.95221,0 3.28186,3.56627 3.70507,2.81523 0.529,-0.75104 -4.33987,-5.06835 -5.50369,-4.63918 -1.05801,0.42916 3.89997,3.61762 4.11158,2.75929 0.3174,-0.75104 -6.1218,-5.65615 -7.70882,-6.72906 -1.48122,-1.18021 -13.85996,-5.36456 -13.85996,-5.36456 l 11.50905,4.86506 -2.11906,-1.55238 -9.38999,-3.31268 13.85996,5.36456 c 0,0 -11.42653,-5.04269 -13.85996,-5.36456 -5.81907,-1.07291 -106.64765,-1.71666 -113.41893,-0.64375 z m -19.15002,11.05099 c -0.2116,0.10729 -1.37542,0.96562 -2.53923,1.82395 -2.01022,1.50208 -2.01022,1.50208 -0.63481,-0.32187 0.74061,-0.96562 -1.63181,1.52033 -0.997,1.52033 0.6348,0 4.38264,-3.23699 4.17104,-3.02241 z M 438.8418,608.5443 c -0.54181,-0.73463 -0.63481,0.53646 -0.63481,-0.64374 -0.1058,-1.18021 -0.63126,1.25309 -0.31386,1.68226 0.31741,0.32187 1.26607,-1.78955 0.94867,-1.03852 z m -13.18537,17.25138 c -0.31741,0.85833 -8.36569,-4.77121 -10.72571,-2.87436 -0.1058,-1.18021 -1.58701,0.85832 -1.26961,1.28749 20.33986,16.4673 12.31272,0.83584 11.99532,1.58687 z"
       id="path4"
       style="fill:url(#linearGradient1049);fill-opacity:1;stroke:none;stroke-width:0.106543"
       sodipodi:nodetypes="cccccscccccscsscscscsccccccsccccccccsccccccccccccccsccccccccc" />
    <rect
       style="fill:url(#linearGradient1051);fill-opacity:1;stroke-width:1.00558"
       id="rect2363"
       width="25.244766"
       height="22.996628"
       x="413.2312"
       y="610.67285"
       ry="40.325451" />
    <rect
       style="fill:url(#linearGradient1053);fill-opacity:1;stroke-width:0.898518"
       id="rect2849"
       width="25.925684"
       height="18.693489"
       x="254.15671"
       y="641.49847"
       ry="21.570511"
       transform="matrix(0.99969086,0.02486348,0,1,0,0)" />
  </g>
  <path
     style="fill:none;fill-rule:evenodd;stroke:#000000;stroke-width:1.02854px;stroke-linecap:butt;stroke-linejoin:miter;stroke-opacity:1"
     d="m 196.96169,815.62985 v 0"
     id="path31491"
     inkscape:connector-type="polyline"
     inkscape:connector-curvature="0" />
</svg>
